Coordinates
version=1
nRows=16
nColumns=36
inDegrees=yes

Units are S.I. units (second, meters, Newtons, ...)
If the header above contains a line with 'inDegrees', this indicates whether rotational values are in degrees (yes) or radians (no).

endheader
time	pelvis_tilt	pelvis_list	pelvis_rotation	pelvis_tx	pelvis_ty	pelvis_tz	hip_flexion_r	hip_adduction_r	hip_rotation_r	knee_angle_r	knee_angle_r_beta	ankle_angle_r	subtalar_angle_r	mtp_angle_r	hip_flexion_l	hip_adduction_l	hip_rotation_l	knee_angle_l	knee_angle_l_beta	ankle_angle_l	subtalar_angle_l	mtp_angle_l	lumbar_extension	lumbar_bending	lumbar_rotation	arm_flex_r	arm_add_r	arm_rot_r	elbow_flex_r	pro_sup_r	arm_flex_l	arm_add_l	arm_rot_l	elbow_flex_l	pro_sup_l
      0.76666670	      2.86142107	      1.85511042	     15.31635047	     -0.14319372	      0.99996954	      0.34243020	     -3.88916862	     -1.82179242	     -7.81885251	      5.86830883	      0.10242131	     12.33503635	     -4.19801708	     -7.49982671	     -6.41844451	     -1.80761157	    -20.05319916	      5.79888121	      0.10120957	     11.04539726	      6.96956941	     -7.49982671	     -4.69635335	      0.32151564	     -1.34957258	     10.72468747	    -43.17068011	     60.21563020	     74.34665518	    103.63764045	     -7.96161053	    -47.71500258	     54.10235378	     83.29589290	     77.39162848
      0.78333330	      2.85582496	      1.85029900	     15.33744712	     -0.13369495	      0.99668973	      0.34528271	     -3.91933411	     -1.81529571	     -7.81806599	      5.87375579	      0.10251638	     12.33295381	     -4.19555514	     -7.49982672	     -6.44629540	     -1.82272393	    -20.05117170	      5.80626237	      0.10133840	     11.04347533	      6.96807276	     -7.49982672	     -4.70168071	      0.32906872	     -1.35255899	     10.73146458	    -43.17845566	     60.21273700	     74.34282088	    103.63764823	     -7.95508112	    -47.70882319	     54.10112944	     83.29709975	     77.39176962
      0.80000000	      3.00466558	      1.79935849	     15.29804287	     -0.13343073	      1.00008605	      0.34511469	     -4.38497016	     -1.67304137	     -7.71733552	      5.23686179	      0.09140048	     12.13928159	     -3.88756726	     -7.49984645	     -6.71006740	     -1.89053932	    -19.93520159	      5.64003128	      0.09843712	     10.76742465	      6.46974160	     -7.49984645	     -4.68743191	      0.42208876	     -1.28699417	     10.52611876	    -43.17484918	     59.92741437	     74.08217837	    101.72043121	     -8.12711684	    -47.59040001	     54.05577258	     83.18116985	     76.28806512
      0.81666670	      2.98655815	      1.80329481	     15.30857124	     -0.14071617	      0.99951973	      0.34845054	     -4.36139747	     -1.67975658	     -7.71691868	      5.22109127	      0.09112523	     12.14134204	     -3.88578410	     -7.49984646	     -6.70554365	     -1.90684586	    -19.93540883	      5.63359466	      0.09832478	     10.77082548	      6.46980125	     -7.49984646	     -4.68065723	      0.42635537	     -1.28528551	     10.52423273	    -43.17815965	     59.92993250	     74.08191111	    101.72147508	     -8.13172804	    -47.59026342	     54.05932819	     83.18212654	     76.28884148
      0.83333330	      2.83602049	      1.68877306	     15.20243888	     -0.13336046	      0.99971778	      0.34498948	     -4.40769170	     -1.56055645	     -7.63756156	      4.77817973	      0.08339497	     12.03003723	     -3.57920511	     -7.49984823	     -6.59131402	     -1.97978149	    -20.11216435	      5.60983010	      0.09791001	     10.87454395	      6.57399826	     -7.49984823	     -4.37147904	      0.48224729	     -1.19143183	     10.65126084	    -43.19217194	     60.25632933	     73.99483059	    101.95542059	     -8.10875139	    -47.64583493	     54.32759617	     83.18482849	     76.44342469
      0.85000000	      2.78576872	      1.75303725	     15.28200683	     -0.15048652	      0.99891057	      0.34596521	     -4.29626537	     -1.61562521	     -7.66314639	      4.69254012	      0.08190028	     12.01871943	     -3.40171864	     -7.49988325	     -6.37950513	     -1.92021544	    -20.09324023	      5.75832824	      0.10050179	     10.93682104	      6.56367084	     -7.49988325	     -4.32635709	      0.41836669	     -1.50348737	     11.79556004	    -43.05260384	     61.69817713	     73.66607390	    104.33700320	     -7.91938236	    -47.87034357	     54.64850620	     83.14476057	     77.72658721
      0.86666670	      2.77567368	      1.75684584	     15.26482869	     -0.14317072	      0.99963899	      0.34238203	     -4.28460094	     -1.63828422	     -7.67172504	      4.61911474	      0.08061876	     12.01819674	     -3.39279664	     -7.49988338	     -6.35089124	     -1.87152723	    -20.13760275	      5.73646088	      0.10012013	     10.98297772	      6.53609284	     -7.49988338	     -4.37182378	      0.43303261	     -1.53312770	     11.78759732	    -43.05119109	     61.69699600	     73.65230304	    104.33672081	     -7.88802820	    -47.82628338	     54.62732265	     83.15041450	     77.72795982
      0.88333330	      2.77918247	      1.68169655	     15.23825364	     -0.13358961	      0.99976021	      0.34524842	     -4.46313393	     -1.53085099	     -7.65651055	      4.31443321	      0.07530106	     11.91063236	     -3.26082138	     -7.49988408	     -6.40297382	     -1.93726516	    -20.21111683	      5.65448371	      0.09868936	     10.94825723	      6.50548812	     -7.49988408	     -4.21380583	      0.50157962	     -1.53110496	     11.66772778	    -43.09130358	     61.68840084	     73.57319433	    104.33571978	     -8.00774787	    -47.69583412	     54.62072995	     83.09376630	     77.74921640
      0.90000000	      2.84285395	      1.66126271	     15.22178041	     -0.13386182	      0.99999683	      0.34507367	     -4.67520339	     -1.47274189	     -7.71317068	      4.14317551	      0.07231205	     11.89241006	     -3.02309710	     -7.49989984	     -6.50172474	     -1.97309011	    -20.20579613	      5.62349118	      0.09814844	     10.89160726	      6.45439819	     -7.49989984	     -4.18769270	      0.53858437	     -1.56819470	     11.58432629	    -43.05593485	     61.59780135	     73.46676898	    102.21768195	     -8.08258630	    -47.67034646	     54.58826946	     83.09078162	     76.88514624
      0.91666670	      2.79951700	      1.61895985	     15.24611382	     -0.13370915	      0.99975086	      0.34516612	     -4.68280566	     -1.41713430	     -7.60633727	      4.02018598	      0.07016548	     11.85535930	     -2.95994041	     -7.49992774	     -6.48305821	     -2.01073980	    -20.17299971	      5.60752135	      0.09786971	     10.81888079	      6.39727599	     -7.49992774	     -4.02725269	      0.57678403	     -1.78410838	     11.82735698	    -43.00604113	     61.96077893	     73.39560171	    104.48933902	     -8.38899749	    -47.64992694	     54.38996748	     83.03859365	     78.56704076
      0.93333330	      2.78442277	      1.58669246	     15.17903352	     -0.13375271	      0.99984167	      0.34503567	     -4.78959892	     -1.37768764	     -7.57561044	      3.83091687	      0.06686211	     11.80014734	     -2.90555434	     -7.49995283	     -6.47530426	     -2.04165577	    -20.21804302	      5.64181843	      0.09846831	     10.84670416	      6.35614913	     -7.49995283	     -3.94581895	      0.61762951	     -1.95527843	     12.02652073	    -42.96870588	     62.28236412	     73.36287286	    104.55309599	     -8.88271114	    -47.62565189	     53.91904455	     83.11417730	     79.06352826
      0.95000000	      2.78972356	      1.55966567	     15.16701724	     -0.13377130	      0.99943355	      0.34514226	     -4.88649233	     -1.32519004	     -7.56401764	      3.72852071	      0.06507496	     11.77431775	     -2.84003686	     -7.49995698	     -6.51207328	     -2.05118072	    -20.10426297	      5.62917761	      0.09824768	     10.76506279	      6.11340156	     -7.49995698	     -3.90515386	      0.65199721	     -1.96288617	     11.73872890	    -42.92288044	     62.01859958	     73.30080896	    102.84669556	     -9.09595989	    -47.60050500	     53.77626176	     83.11431156	     78.10240049
      0.96666670	      2.84801907	      1.54902437	     15.16322471	     -0.13390676	      0.99936848	      0.34497263	     -5.04964354	     -1.27836619	     -7.51883159	      3.62125477	      0.06320282	     11.75281650	     -2.82590600	     -7.49995869	     -6.54631586	     -2.11458268	    -20.15156150	      5.74368022	      0.10024613	     10.89667028	      6.27185273	     -7.49995869	     -3.96392119	      0.70007699	     -1.98506864	     11.70728792	    -42.88987225	     62.05372238	     73.41424979	    102.75619345	     -9.16891595	    -47.64841893	     53.78700476	     83.25761756	     77.90036165
      0.98333330	      2.43752601	      1.43293801	     15.26516590	     -0.13362341	      0.99860525	      0.34500415	     -4.73763012	     -1.24576553	     -7.50134627	      3.44249418	      0.06008286	     11.77995817	     -2.86224027	     -7.49996011	     -6.06306682	     -2.14243876	    -19.88066067	      5.83369321	      0.10181715	     10.90261807	      5.93707875	     -7.49996011	     -3.28185182	      0.69293863	     -2.06214134	     11.27687143	    -42.87791342	     61.92637507	     73.41153563	    101.82102149	     -9.45119905	    -47.55051032	     53.69216370	     83.00991335	     77.37629299
      1.00000000	      2.74655521	      1.51013986	     15.14133657	     -0.13342549	      0.99937465	      0.34500774	     -5.18915993	     -1.23348457	     -7.51925125	      3.20788121	      0.05598809	     11.68206761	     -2.62358836	     -7.49996206	     -6.51848392	     -2.11578595	    -20.12417131	      5.67048366	      0.09896861	     10.83533016	      6.19892064	     -7.49996206	     -3.76374856	      0.74558378	     -1.94641154	     11.60718867	    -42.91085065	     62.16251349	     73.43657377	    101.91439406	     -9.34370784	    -47.69498653	     53.77512636	     83.22085427	     77.30943420
      1.01666670	      2.64168099	      1.52183217	     15.07589398	     -0.14127216	      0.99856420	      0.34889888	     -5.10120513	     -1.26497440	     -7.50600158	      3.05698936	      0.05335453	     11.64209700	     -2.55094744	     -7.49996223	     -6.37383397	     -2.07313374	    -20.16054900	      5.73782483	      0.10014394	     10.90314100	      6.17495281	     -7.49996223	     -3.72069463	      0.75173989	     -1.86202846	     11.74877310	    -42.88722079	     62.22094750	     73.46300935	    102.03118032	     -9.31353927	    -47.77847644	     53.76585435	     83.20662359	     77.36183946
